<?xml version="1.0" encoding="utf-8"?>
<!-- Generator: Adobe Illustrator 18.1.1, SVG Export Plug-In . SVG Version: 6.00 Build 0)  -->
<svg version="1.1" xmlns="http://www.w3.org/2000/svg" xmlns:xlink="http://www.w3.org/1999/xlink" x="0px" y="0px"
	 viewBox="0 0 102 102" enable-background="new 0 0 102 102" xml:space="preserve">
<g id="hover">
</g>
<g id="normals">
	<g>
		<g>
			<path fill="none" stroke="#00D6E3" stroke-width="2" stroke-miterlimit="10" d="M22.2,44v7c0,2.1-0.1,5,2,5v9.9h7.9V56
				c2.1,0,2-2.9,2-5v-7H22.2z"/>
			<path fill="none" stroke="#00D6E3" stroke-width="2" stroke-miterlimit="10" d="M67.9,44v7c0,2.5,1,4,2,4v10.9h7.9V55
				c1.1,0,2-1.9,2-4v-7H67.9z"/>
			<path fill="none" stroke="#00D6E3" stroke-width="2" stroke-miterlimit="10" d="M42.1,44h17.9V57c0,2.8-1.2,5-4,5v13.9H46V61.9
				c-2.8,0-4-2.2-4-5V44z"/>
			<circle fill="none" stroke="#00D6E3" stroke-width="2" stroke-miterlimit="10" cx="73.8" cy="36.1" r="4"/>
			<circle fill="none" stroke="#00D6E3" stroke-width="2" stroke-miterlimit="10" cx="28.2" cy="36.1" r="4"/>
			<circle fill="none" stroke="#00D6E3" stroke-width="2" stroke-miterlimit="10" cx="51" cy="33.1" r="7"/>
		</g>
		
			<circle fill="none" stroke="#00D6E3" stroke-width="2" stroke-linecap="round" stroke-linejoin="round" stroke-miterlimit="10" cx="51" cy="51" r="50"/>
	</g>
</g>
</svg>
